<svg width="754" height="733" viewBox="0 0 754 733" fill="none" xmlns="http://www.w3.org/2000/svg">
<path d="M366.75 524C345.083 524 325.667 520.583 308.5 513.75C291.5 506.917 277.333 496.917 266 483.75L298.25 432.25C308.917 443.583 320.083 452.25 331.75 458.25C343.417 464.25 355.083 467.25 366.75 467.25C373.25 467.25 378.833 466.167 383.5 464C388.333 461.833 392.083 458.75 394.75 454.75C397.583 450.583 399 445.583 399 439.75C399 433.083 397.083 427.833 393.25 424C389.583 420.167 383.917 416.667 376.25 413.5C368.583 410.167 358.667 406 346.5 401C336.167 396.667 326.25 391.75 316.75 386.25C307.25 380.75 299.5 373.75 293.5 365.25C287.667 356.75 284.75 346 284.75 333C284.75 317.167 289.167 303.25 298 291.25C306.833 279.083 319 269.583 334.5 262.75C350.167 255.917 368.167 252.5 388.5 252.5C401.167 252.5 414.417 254.417 428.25 258.25C442.25 262.083 457.167 267.917 473 275.75L446.75 325C425.25 311.167 406 304.25 389 304.25C379.5 304.25 371.917 306.333 366.25 310.5C360.583 314.667 357.75 319.917 357.75 326.25C357.75 332.25 360.667 337.5 366.5 342C372.5 346.333 379.75 350.25 388.25 353.75C396.917 357.083 405.167 360.167 413 363C425.833 367.667 437.167 372.833 447 378.5C457 384.167 464.833 391.583 470.5 400.75C476.167 409.75 479 421.833 479 437C479 455.5 474.5 471.25 465.5 484.25C456.667 497.083 443.833 506.917 427 513.75C410.333 520.583 390.25 524 366.75 524Z" fill="white"/>
<mask id="path-2-inside-1_1_133" fill="white">
<path d="M0 120C0 97.9086 17.9086 80 40 80H433.258C455.349 80 473.258 97.9086 473.258 120V521.579C473.258 543.67 455.349 561.579 433.258 561.579H40C17.9086 561.579 0 543.67 0 521.579V120Z"/>
</mask>
<path d="M-40 120C-40 75.8172 -4.18278 40 40 40H393.258C437.441 40 473.258 75.8172 473.258 120C473.258 120 455.349 120 433.258 120H40H-40ZM473.258 561.579H0H473.258ZM40 561.579C-4.18278 561.579 -40 525.762 -40 481.579V120C-40 75.8172 -4.18278 40 40 40V120V521.579C40 543.67 40 561.579 40 561.579ZM473.258 80V561.579V80Z" fill="#EF4444" mask="url(#path-2-inside-1_1_133)"/>
<path d="M350.891 80H516.084C527.13 80 536.084 88.9543 536.084 100V100C536.084 111.046 527.13 120 516.084 120H350.891V80Z" fill="#EF4444"/>
<path d="M40.2088 418.596L40.2088 582.596C40.2088 593.642 31.2545 602.596 20.2088 602.596V602.596C9.16307 602.596 0.208763 593.642 0.208764 582.596L0.208771 418.596L40.2088 418.596Z" fill="#EF4444"/>
<mask id="path-6-inside-2_1_133" fill="white">
<path d="M629 4.76995e-07C651.091 2.13558e-07 669 17.9086 669 40L669 433.258C669 455.349 651.091 473.258 629 473.258L227.421 473.258C205.33 473.258 187.421 455.349 187.421 433.258L187.421 40C187.421 17.9086 205.33 5.52921e-06 227.421 5.26578e-06L629 4.76995e-07Z"/>
</mask>
<path d="M629 -40C673.183 -40 709 -4.18278 709 40L709 393.258C709 437.441 673.183 473.258 629 473.258C629 473.258 629 455.349 629 433.258L629 40L629 -40ZM187.421 473.258L187.421 5.74277e-06L187.421 473.258ZM187.421 40C187.421 -4.18277 223.238 -40 267.421 -40L629 -40C673.183 -40 709 -4.18278 709 40L629 40L227.421 40C205.33 40 187.421 40 187.421 40ZM669 473.258L187.421 473.258L669 473.258Z" fill="#84CC16" mask="url(#path-6-inside-2_1_133)"/>
<path d="M669 350.891L669 516.084C669 527.13 660.046 536.084 649 536.084V536.084C637.954 536.084 629 527.13 629 516.084L629 350.891L669 350.891Z" fill="#84CC16"/>
<path d="M330.404 40.2088L166.403 40.2088C155.358 40.2088 146.404 31.2545 146.404 20.2088V20.2088C146.404 9.1631 155.358 0.208796 166.404 0.208796L330.404 0.208801L330.404 40.2088Z" fill="#84CC16"/>
<mask id="path-10-inside-3_1_133" fill="white">
<path d="M752.188 607.989C752.342 630.08 734.559 648.113 712.468 648.267L319.22 651.006C297.129 651.16 279.096 633.377 278.942 611.286L276.145 209.717C275.991 187.626 293.774 169.593 315.865 169.439L709.113 166.699C731.204 166.545 749.237 184.329 749.391 206.42L752.188 607.989Z"/>
</mask>
<path d="M792.187 607.71C792.495 651.892 756.928 687.958 712.747 688.266L359.497 690.727C315.316 691.034 279.25 655.467 278.942 611.286C278.942 611.286 296.85 611.161 318.941 611.007L712.189 608.268L792.187 607.71ZM275.866 169.718L749.112 166.421L275.866 169.718ZM709.113 166.699C753.295 166.392 789.361 201.958 789.668 246.14L792.187 607.71C792.495 651.892 756.928 687.958 712.747 688.266L712.189 608.268L709.392 206.698C709.238 184.607 709.113 166.699 709.113 166.699ZM279.221 651.285L275.866 169.718L279.221 651.285Z" fill="#F97316" mask="url(#path-10-inside-3_1_133)"/>
<path d="M401.584 650.432L236.395 651.583C225.35 651.66 216.333 642.768 216.256 631.723V631.723C216.179 620.678 225.071 611.661 236.117 611.584L401.305 610.433L401.584 650.432Z" fill="#F97316"/>
<path d="M709.9 309.68L708.758 145.684C708.681 134.638 717.573 125.622 728.618 125.545V125.545C739.664 125.468 748.68 134.36 748.757 145.405L749.899 309.401L709.9 309.68Z" fill="#F97316"/>
<mask id="path-14-inside-4_1_133" fill="white">
<path d="M124.04 732.368C101.949 732.522 83.9158 714.738 83.7619 692.647L81.0223 299.399C80.8684 277.308 98.6518 259.275 120.743 259.122L522.312 256.324C544.403 256.17 562.436 273.954 562.59 296.044L565.329 689.293C565.483 711.383 547.7 729.416 525.609 729.57L124.04 732.368Z"/>
</mask>
<path d="M124.318 772.367C80.1365 772.675 44.0706 737.108 43.7628 692.926L41.3019 339.677C40.9941 295.495 76.561 259.429 120.743 259.122C120.743 259.122 120.867 277.03 121.021 299.121L123.761 692.369L124.318 772.367ZM562.311 256.045L565.608 729.292L562.311 256.045ZM565.329 689.293C565.637 733.474 530.07 769.54 485.888 769.848L124.318 772.367C80.1365 772.675 44.0706 737.108 43.7628 692.926L123.761 692.369L525.33 689.571C547.421 689.417 565.329 689.293 565.329 689.293ZM80.7436 259.4L562.311 256.045L80.7436 259.4Z" fill="#3B82F6" mask="url(#path-14-inside-4_1_133)"/>
<path d="M81.5961 381.764L80.4453 216.575C80.3684 205.529 89.2601 196.513 100.305 196.436V196.436C111.351 196.359 120.367 205.251 120.444 216.296L121.595 381.485L81.5961 381.764Z" fill="#3B82F6"/>
<path d="M422.349 690.08L586.345 688.937C597.39 688.861 606.407 697.752 606.484 708.798V708.798C606.561 719.843 597.669 728.86 586.623 728.937L422.627 730.079L422.349 690.08Z" fill="#3B82F6"/>
</svg>
